<svg xmlns="http://www.w3.org/2000/svg" viewBox="0 0 3605.09 1052.28"><defs><style>.cls-1{fill:#e12027;}.cls-2{fill:#f58b20;}.cls-3{fill:#9c4d9b;}.cls-4{fill:#3cb7e9;}.cls-5{fill:#ec3e90;}.cls-6{fill:#7e8080;}.cls-7{fill:#a2d45e;}.cls-8{fill:#006a5b;}</style></defs><title>Asset 5</title><g id="Layer_2" data-name="Layer 2"><g id="Layer_1-2" data-name="Layer 1"><path class="cls-1" d="M235.57,724.77a406.18,406.18,0,0,1-229.45-98A531.6,531.6,0,0,0,111.5,851.21c27.63,10.43,58.16,19.36,89.58,24,69.55,10.2,105.63-23.77,179.21-36.83A465.65,465.65,0,0,1,235.57,724.77Z"/><path class="cls-2" d="M391,843.76c-3.62-1.71-7.14-3.61-10.71-5.41-73.58,13.06-109.66,47-179.21,36.83-31.42-4.61-62-13.54-89.58-24a534,534,0,0,0,288.32,185.23c1.66-14.45,6.52-30.64,15.18-49.13,25.54-54.51,75.09-86.41,112.36-103.66A460,460,0,0,1,391,843.76Z"/><path class="cls-3" d="M661.64,882a457.51,457.51,0,0,1-134.28,1.7C490.09,900.9,440.54,932.8,415,987.31c-8.66,18.49-13.52,34.68-15.18,49.13a533.42,533.42,0,0,0,109,15.4c6.68.24,13.37.44,20.11.44A535.94,535.94,0,0,0,642.62,1040c13.74-14.55,31-29.2,52.82-43.42,55.18-35.93,69.8-90.51,77.67-147.24A459.5,459.5,0,0,1,661.64,882Z"/><path class="cls-4" d="M960.19,700.87A467.09,467.09,0,0,1,773.11,849.36c-7.87,56.73-22.49,111.31-77.67,147.24-21.83,14.22-39.08,28.87-52.82,43.42a532.91,532.91,0,0,0,275.5-156.46q17.57-18.7,33.28-39C987.81,759.09,975.72,746.11,960.19,700.87Z"/><path class="cls-5" d="M1051.31,408.73c.17,5.2.4,10.4.4,15.66a463.51,463.51,0,0,1-91.52,276.48c15.53,45.24,27.62,58.22-8.79,143.64a533.88,533.88,0,0,0,99.91-435.78Z"/><path class="cls-6" d="M0,446.36A302.82,302.82,0,0,0,158.51,597.55a463.75,463.75,0,0,1-13.07-310c-46,22.68-84.32,36.28-116.27,43.31A529.81,529.81,0,0,0,0,446.36Z"/><path class="cls-7" d="M379.59,6.11q-24.15,7.07-47.37,16.24a535.29,535.29,0,0,0-303,308.52c31.95-7,70.27-20.63,116.27-43.31C179.49,177.35,253.6,84.74,350.73,26.62c11.76-7,23.95-13.38,36.33-19.39,5-2.44,10-5,15.09-7.23C394.56,1.85,387.06,3.93,379.59,6.11Z"/><circle class="cls-8" cx="591.9" cy="425.94" r="362.51"/><path class="cls-8" d="M1612.4,555.57c-21.86,10.93-71.05,22.64-135.07,22.64-181.92,0-275.61-113.21-275.61-263.11,0-179.57,128-279.51,287.32-279.51,61.68,0,108.53,12.49,129.6,23.42l-24.2,94.47c-24.2-10.15-57.77-19.52-99.93-19.52-94.48,0-167.87,57-167.87,174.11,0,105.4,62.47,171.77,168.65,171.77,35.91,0,75.73-7.81,99.15-17.18Z"/><path class="cls-8" d="M1749.82,188.93l57,187.38c6.24,22.64,14,50.75,18.73,71.05h2.34c5.47-20.3,11.71-49.19,17.18-71.05l46.85-187.38h127.26l-89,251.4C1875.52,591.8,1838.83,652.7,1795.88,691c-41.38,35.92-85.1,48.41-114.77,52.31l-25-100.71c14.83-2.35,33.57-9.37,51.53-20.3,18-9.37,37.48-28.11,49.19-47.63,3.9-5.47,6.24-11.71,6.24-17.18,0-3.9-.78-10.15-5.46-19.51l-139.76-349Z"/><path class="cls-8" d="M2209.38,79.31V188.62h85.1v87.44h-85.1v138.2c0,46.06,10.93,67.14,46.85,67.14a194.22,194.22,0,0,0,35.14-3.12l.78,89.79c-15.62,6.24-43.73,10.14-77.3,10.14-38.26,0-70.27-13.27-89-32.79-21.86-22.64-32.79-59.33-32.79-113.21V276.06H2042.3V188.62h50.75V105.86Z"/><path class="cls-8" d="M2736.4,384.11c0,139.76-99.15,203.78-201.44,203.78-111.64,0-197.53-73.39-197.53-196.75s81.2-202.21,203.78-202.21C2658.32,188.93,2736.4,269.34,2736.4,384.11ZM2460,388c0,65.58,27.33,114.77,78.08,114.77,46.06,0,75.73-46.07,75.73-114.77,0-57-21.86-114.77-75.73-114.77C2481.09,273.25,2460,331.8,2460,388Z"/><path class="cls-8" d="M2804.37,319.31c0-47.62-1.56-88.22-3.12-121.8h103.06l5.47,52.32h2.34c15.61-24.21,54.65-60.9,117.89-60.9,78.08,0,136.63,51.53,136.63,164V579.3H3048V367.72c0-49.19-17.18-82.76-60.12-82.76-32.79,0-52.31,22.64-60.12,44.5-3.12,7-4.68,18.74-4.68,29.67V579.3H2804.37Z"/><path class="cls-8" d="M3242.82,319.31c0-47.62-1.56-88.22-3.12-121.8h103.06l5.46,52.32h2.34c15.62-24.21,54.66-60.9,117.9-60.9,78.07,0,136.63,51.53,136.63,164V579.3H3486.42V367.72c0-49.19-17.18-82.76-60.12-82.76-32.8,0-52.31,22.64-60.12,44.5-3.13,7-4.69,18.74-4.69,29.67V579.3H3242.82Z"/><path class="cls-8" d="M1348.26,892.06c0,37.75-26.3,80.79-90.55,80.79h-52.37l31.17-141.44H1288C1319.42,831.41,1348.26,856,1348.26,892.06Zm-25.87,1.48c0-22.9-16.33-40.29-39-40.29h-26.93L1234.81,951h27.36C1299.49,951,1322.39,924.5,1322.39,893.54Z"/><path class="cls-8" d="M1436.84,867.89c26.51,0,45.17,17.81,45.17,45.38A73.49,73.49,0,0,1,1480.1,929h-79.31l-.21,3.6c0,11.66,10.39,24.6,31.17,24.6,9.33,0,20.15-3,27.36-8.48l7,15.47c-9.54,7-23.11,11.25-36,11.25-31.81,0-51.74-17.61-51.74-45.81C1378.32,896.09,1403.34,867.89,1436.84,867.89Zm25.23,42.4c0-13.14-8.9-24.17-26.93-24.17-16.32,0-29.26,12.94-32,27.15h58.73A13.23,13.23,0,0,0,1462.07,910.29Z"/><path class="cls-8" d="M1542.61,831.41h22.27l-31.17,141.44h-22.27Z"/><path class="cls-8" d="M1604.3,870.43h22.26l-22.69,102.42h-22.26Zm19.08-44.53c7.21,0,12.51,5.51,12.51,11.87a15.71,15.71,0,0,1-15.48,15.69c-7.21,0-12.51-5.3-12.51-11.86A15.71,15.71,0,0,1,1623.38,825.9Z"/><path class="cls-8" d="M1659.62,870.43h23.11l12.73,76.76,47.07-76.76h24.6l-64.46,102.42h-24Z"/><path class="cls-8" d="M1840,867.89c26.51,0,45.17,17.81,45.17,45.38a73.49,73.49,0,0,1-1.91,15.69H1804l-.22,3.6c0,11.66,10.39,24.6,31.18,24.6,9.33,0,20.14-3,27.35-8.48l7,15.47c-9.55,7-23.12,11.25-36,11.25-31.81,0-51.74-17.61-51.74-45.81C1781.51,896.09,1806.53,867.89,1840,867.89Zm25.24,42.4c0-13.14-8.91-24.17-26.93-24.17-16.33,0-29.26,12.94-32,27.15h58.74A13.23,13.23,0,0,0,1865.27,910.29Z"/><path class="cls-8" d="M1937.32,870.43h22.27l-3.39,14.42c9.54-10.6,20.35-16.76,37.11-16.76l-4.88,22.27a38.08,38.08,0,0,0-9.12-1.06c-10.6,0-21,6.58-27.14,14.21l-15.27,69.34h-22.27Z"/><path class="cls-8" d="M2030,870.43h22.26l-22.69,102.42h-22.26ZM2049,825.9c7.21,0,12.51,5.51,12.51,11.87a15.71,15.71,0,0,1-15.48,15.69c-7.21,0-12.51-5.3-12.51-11.86A15.71,15.71,0,0,1,2049,825.9Z"/><path class="cls-8" d="M2160.77,908.6a30.29,30.29,0,0,0,1.06-6.36c0-10.39-8.27-14.63-17.17-14.63-12.3,0-22.48,7-29.27,13.78l-15.69,71.46h-22.26l22.69-102.42h22.26l-3.18,14c8.48-8.06,20.14-16.54,35-16.54,19.08,0,31.38,9.75,31.38,25.86a60.94,60.94,0,0,1-1.06,8.49l-15.69,70.61h-22.27Z"/><path class="cls-8" d="M2224.13,982c6.79,9.55,19.93,14.22,34.14,14.22,13.78,0,26.51-6.58,31.38-28.63l2.55-11c-8.06,10-19.51,16.33-32.87,16.33-21,0-38.81-12.51-38.81-42,0-31.6,19.94-63,53.23-63,12.93,0,26.72,7,34.14,17.17l3.39-14.63h22.27l-21.63,97.12c-7.85,36.68-31.17,46.87-53.23,46.87-19.93,0-36.26-4.46-47.92-17.61Zm80.15-79.72c-5.3-9.12-15.9-14.63-28-14.63-19.5,0-32.65,18.65-32.65,39.23,0,16.11,10.18,26.29,25.66,26.29,10.18,0,20.35-6.15,26.72-13.78Z"/><path class="cls-8" d="M2442.26,948l12.93-58.31h-17l4.45-19.3h17l6.15-28h22.26l-6.15,28h20.78l-4.45,19.3h-20.78l-11.66,52.8a20.64,20.64,0,0,0-.43,4c0,5.73,3.39,9.11,10.18,9.11a14.45,14.45,0,0,0,8.48-2.75l1.28,17.81c-3.82,3-10,4.67-16.33,4.67-16.54,0-27.36-6.58-27.36-20.79A44,44,0,0,1,2442.26,948Z"/><path class="cls-8" d="M2581.12,867.89c31.17,0,49.2,19.29,49.2,46.22,0,32-24.39,61.29-58.32,61.29-31.17,0-49.19-19.09-49.19-46C2522.81,897.36,2547.19,867.89,2581.12,867.89Zm-.63,19.72c-20.36,0-34.57,19.93-34.57,40.71,0,16.75,10,27.35,26.72,27.35,20.36,0,34.57-19.72,34.57-40.71C2607.21,898.21,2597.24,887.61,2580.49,887.61Z"/><path class="cls-8" d="M2746.67,1011.87H2724.4l31.39-141.44h22.26L2774.87,884c8.69-10.39,19.3-16.11,32.23-16.11,23.11,0,39.23,15.48,39.23,42.4,0,31.81-19.93,65.11-53.86,65.11-14.84,0-27.14-6.58-33.93-17.18Zm51.1-124.26c-11,0-20.78,6.57-26.93,14.63l-8.69,39.65c4.66,7.85,14.42,13.78,26.93,13.78,20.14,0,33.93-19.72,33.93-40.92C2823,898.21,2812.4,887.61,2797.77,887.61Z"/><path class="cls-8" d="M2897.39,870.43h22.26l-3.39,14.42c9.54-10.6,20.36-16.76,37.11-16.76l-4.88,22.27a38,38,0,0,0-9.12-1.06c-10.6,0-21,6.58-27.14,14.21L2897,972.85H2874.7Z"/><path class="cls-8" d="M3029.46,867.89c31.18,0,49.2,19.29,49.2,46.22,0,32-24.39,61.29-58.31,61.29-31.18,0-49.2-19.09-49.2-46C2971.15,897.36,2995.54,867.89,3029.46,867.89Zm-.63,19.72c-20.36,0-34.57,19.93-34.57,40.71,0,16.75,10,27.35,26.72,27.35,20.36,0,34.57-19.72,34.57-40.71C3055.55,898.21,3045.58,887.61,3028.83,887.61Z"/><path class="cls-8" d="M3247.83,907.54a30,30,0,0,0,.85-6.36c0-8.49-7.42-13.57-15.9-13.57-8.91,0-18,6.78-24.17,13.78l-15.7,71.46h-22.26l14.42-65.31a34.4,34.4,0,0,0,.85-7.42c-.22-6.79-5.73-12.51-16.12-12.51-8.91,0-17.81,7-24,13.78l-15.69,71.46h-22.27l22.69-102.42h22.27l-3.18,14c5.72-6.37,16.75-16.54,31.59-16.54,19.3,0,27.14,13.78,27.14,18v.64c8.06-10,20.36-18.66,35.84-18.66,14.84,0,28.2,9.11,28.2,25.86a50.88,50.88,0,0,1-1.06,8.49l-15.69,70.61h-22.26Z"/><path class="cls-8" d="M3326.23,870.43h22.27l-22.69,102.42h-22.27Zm19.09-44.53c7.2,0,12.51,5.51,12.51,11.87a15.71,15.71,0,0,1-15.48,15.69c-7.21,0-12.51-5.3-12.51-11.86A15.71,15.71,0,0,1,3345.32,825.9Z"/><path class="cls-8" d="M3383,941.68c5.72,7.63,19.93,16.11,35,16.11,11.45,0,18.45-6.56,18.45-13.78,0-7-9.55-10.39-20.36-14.2-14.84-5.31-32.45-11.67-32.45-28.63,0-17.39,14.43-33.29,40.72-33.29,17.39,0,33.08,7,41.56,16.75l-11.87,14.63c-4.88-6.79-17.6-13.57-30.33-13.57-11.45,0-18,5.3-18,12.08,0,6,9.12,9.33,19.72,13.15,15.06,5.31,33.29,11.88,33.29,29.48,0,18.87-15.69,35-42.62,35-18.66,0-35.63-6.36-46.23-18.24Z"/><path class="cls-8" d="M3555.4,867.89c26.5,0,45.16,17.81,45.16,45.38a74.22,74.22,0,0,1-1.9,15.69h-79.31l-.21,3.6c0,11.66,10.39,24.6,31.17,24.6,9.33,0,20.14-3,27.35-8.48l7,15.47c-9.54,7-23.11,11.25-36,11.25-31.81,0-51.74-17.61-51.74-45.81C3496.87,896.09,3521.89,867.89,3555.4,867.89Zm25.23,42.4c0-13.14-8.91-24.17-26.93-24.17-16.33,0-29.26,12.94-32,27.15h58.74A13.23,13.23,0,0,0,3580.63,910.29Z"/></g></g></svg>